<?xml version="1.0" encoding="utf-8"?>
<svg width="1015px" height="612px" viewBox="0 0 1015 612" version="1.1" xmlns:xlink="http://www.w3.org/1999/xlink" xmlns="http://www.w3.org/2000/svg">
  <defs>
    <path d="M0 0L1013.45 0L1013.45 610.281L0 610.281L0 0Z" id="path_1" />
    <clipPath id="mask_1">
      <use xlink:href="#path_1" />
    </clipPath>
  </defs>
  <g id="contact-back" transform="translate(0.5 0.5)">
    <path d="M0 0L1013.45 0L1013.45 610.281L0 610.281L0 0Z" id="Background" fill="none" fill-rule="evenodd" stroke="none" />
    <g clip-path="url(#mask_1)">
      <path d="M432.417 442.915L47.5831 442.915C21.3037 442.915 0 421.612 0 395.332L0 219.02C0 213.846 2.12695 208.899 5.88229 205.339L209.806 12.0365C226.737 -4.01216 253.263 -4.01216 270.194 12.0365L464.624 196.34C474.44 205.645 480 218.576 480 232.101L480 395.332C480.009 421.595 458.713 442.906 432.433 442.915L432.417 442.915Z" transform="translate(240.97879 166.03563)" id="Shape" fill="#63AEFF" fill-rule="evenodd" stroke="none" />
      <path d="M3.05176e-05 0L476 0L476 192.268C476 208.136 463.136 221 447.268 221L28.7323 221C12.8639 221 0 208.136 1.52588e-05 192.268L1.52588e-05 0L3.05176e-05 0Z" transform="translate(240.97876 387.95084)" id="Shape" fill="#000000" fill-opacity="0.1" fill-rule="evenodd" stroke="none" />
      <path d="M0 52.3622L0 26.1811C0 18.9514 2.55609 12.7804 7.66827 7.66827C12.7804 2.55609 18.9514 0 26.1811 0L327.819 0C335.049 0 341.22 2.55609 346.332 7.66827C351.444 12.7804 354 18.9514 354 26.1811L354 327.819C354 335.049 351.444 341.22 346.332 346.332C341.22 351.444 335.049 354 327.819 354L26.1811 354C18.9514 354 12.7804 351.444 7.66827 346.332C2.55609 341.22 0 335.049 0 327.819L0 52.3622Z" transform="translate(303.4788 236.45085)" id="Rectangle" fill="#FFAE63" fill-rule="evenodd" stroke="none" />
      <path d="M354 0L354 194.55L0 194.55L0 0L177 85.55L354 0L354 0Z" transform="translate(303.4786 395.90128)" id="Polygon" fill="#000000" fill-opacity="0.1" fill-rule="evenodd" stroke="none" />
      <path d="M240 110.534L13.2062 0.916962C10.3546 -0.461273 6.99466 -0.276154 4.31174 1.40695C1.62878 3.09006 0 6.03464 0 9.20187L0 197.802C3.05176e-05 213.67 12.8639 226.534 28.7323 226.534L451.268 226.534C467.136 226.534 480 213.67 480 197.802L480 12.4326C480 8.56784 478.012 4.97464 474.738 2.92081C471.465 0.866913 467.365 0.641083 463.885 2.32291L240 110.534Z" transform="translate(240.47879 381.9169)" id="Shape" fill="#63AEFF" fill-rule="evenodd" stroke="none" />
      <path d="M0 0L99 0L99 14L0 14L0 0Z" transform="translate(333.9788 268.95084)" id="Rectangle" fill="#F2F2F2" fill-rule="evenodd" stroke="none" />
      <path d="M0 0L294 0L294 8L0 8L0 0Z" transform="translate(325.9788 319.95084)" id="Rectangle" fill="#F2F2F2" fill-rule="evenodd" stroke="none" />
      <path d="M0 0L294 0L294 8L0 8L0 0Z" transform="translate(325.9788 346.95084)" id="Rectangle" fill="#F2F2F2" fill-rule="evenodd" stroke="none" />
      <path d="M0 0L294 0L294 8L0 8L0 0Z" transform="translate(325.9788 373.95084)" id="Rectangle" fill="#F2F2F2" fill-rule="evenodd" stroke="none" />
      <path d="M0 1L824 1" transform="translate(60.97879 607.45087)" id="Line" fill="none" fill-rule="evenodd" stroke="#FFFFFF" stroke-width="1" />
      <path d="M0 0C0 58.9603 36.9886 106.67 82.6993 106.67" transform="translate(0.024597168 485.31238)" id="Shape" fill="#63AEFF" fill-rule="evenodd" stroke="none" />
      <path d="M0 107.869C0 48.246 41.2771 0 92.2877 0" transform="translate(82.72394 484.11383)" id="Shape" fill="#FFAE63" fill-rule="evenodd" stroke="none" />
      <path d="M0 0C0 56.006 23.5869 101.325 52.7358 101.325" transform="translate(29.988129 490.65723)" id="Shape" fill="#FFAE63" fill-rule="evenodd" stroke="none" />
      <path d="M0 137.832C0 61.6476 47.7099 0 106.67 0" transform="translate(82.72394 454.15027)" id="Shape" fill="#63AEFF" fill-rule="evenodd" stroke="none" />
      <path d="M0 6.33728C0 6.33728 11.7281 5.97607 15.2627 3.45917C18.7973 0.942261 33.3035 -2.06311 34.1803 1.97351C35.0572 6.01013 51.8055 22.0496 38.5645 22.1564C25.3235 22.2632 7.79836 20.0939 4.2706 17.9451C0.742844 15.7962 0 6.33728 0 6.33728L0 6.33728Z" transform="translate(65.32614 586.3973)" id="Shape" fill="#A8A8A8" fill-rule="evenodd" stroke="none" />
      <path d="M38.8008 14.4292C25.5598 14.536 8.03465 12.3667 4.50688 10.2178C1.8203 8.58136 0.749725 2.70917 0.391525 0C0.143448 0.0106812 0 0.0152588 0 0.0152588C0 0.0152588 0.742828 9.47406 4.2706 11.623C7.79837 13.7719 25.3236 15.9412 38.5645 15.8344C42.3867 15.8035 43.7069 14.4437 43.6344 12.4296C43.1035 13.6464 41.6457 14.4063 38.8008 14.4292L38.8008 14.4292Z" transform="translate(65.32614 592.71936)" id="Shape" fill="#000000" fill-opacity="0.2" fill-rule="evenodd" stroke="none" />
      <path d="M6.85724 16.752C6.25623 22.1065 2.17212 26.4198 0.658874 31.5911C-1.61884 39.3746 2.31964 47.727 7.70709 53.7888C16.4874 63.5645 28.8157 69.4182 41.9407 70.0434C43.8496 70.2112 45.7729 70.0016 47.6008 69.4265C49.2329 68.7698 50.7023 67.7656 51.9071 66.4836C55.9644 62.4097 58.1423 56.7651 59.0103 51.0814C59.8782 45.3976 59.5409 39.6072 59.2015 33.8676C59.2031 32.681 58.9875 31.5043 58.5654 30.3954C58.0122 29.3392 57.2523 28.4051 56.3308 27.6484C53.4097 24.9688 50.1923 22.6315 46.7408 20.6819C45.1808 19.9829 43.805 18.9301 42.7225 17.6071C42.0702 16.4737 41.6481 15.2227 41.4803 13.9258L40.4208 8.52686C40.2319 6.97101 39.7005 5.47638 38.865 4.15042C36.9934 1.62567 33.4133 1.28207 30.2729 1.15887L18.7678 0.707581C15.189 0.5672 10.4735 -0.459045 6.97986 0.243774C3.71747 0.900085 4.80115 3.9064 5.39374 6.64377C6.25311 9.94885 6.7439 13.3389 6.85724 16.752L6.85724 16.752Z" transform="translate(712.88043 145.9779)" id="Shape" fill="#A0616A" fill-rule="evenodd" stroke="none" />
      <path d="M6.85724 16.752C6.25623 22.1065 2.17212 26.4198 0.658874 31.5911C-1.61884 39.3746 2.31964 47.727 7.70709 53.7888C16.4874 63.5645 28.8157 69.4182 41.9407 70.0434C43.8496 70.2112 45.7729 70.0016 47.6008 69.4265C49.2329 68.7698 50.7023 67.7656 51.9071 66.4836C55.9644 62.4097 58.1423 56.7651 59.0103 51.0814C59.8782 45.3976 59.5409 39.6072 59.2015 33.8676C59.2031 32.681 58.9875 31.5043 58.5654 30.3954C58.0122 29.3392 57.2523 28.4051 56.3308 27.6484C53.4097 24.9688 50.1923 22.6315 46.7408 20.6819C45.1808 19.9829 43.805 18.9301 42.7225 17.6071C42.0702 16.4737 41.6481 15.2227 41.4803 13.9258L40.4208 8.52686C40.2319 6.97101 39.7005 5.47638 38.865 4.15042C36.9934 1.62567 33.4133 1.28207 30.2729 1.15887L18.7678 0.707581C15.189 0.5672 10.4735 -0.459045 6.97986 0.243774C3.71747 0.900085 4.80115 3.9064 5.39374 6.64377C6.25311 9.94885 6.7439 13.3389 6.85724 16.752L6.85724 16.752Z" transform="translate(712.88043 145.9779)" id="Shape" fill="#000000" fill-opacity="0.1" fill-rule="evenodd" stroke="none" />
      <path d="M59.8549 26.508C58.2249 44.3802 56.5949 62.2496 54.965 80.1163C53.689 94.177 52.3882 108.295 49.8857 122.175C49.0212 126.958 48.0087 131.716 46.8068 136.433C43.4645 149.531 38.6158 162.332 37.0516 175.759C37.0022 176.145 36.9611 176.541 36.9199 176.936C36.7448 179.905 36.1829 182.838 35.2487 185.662C34.4667 187.712 33.2647 189.58 32.4168 191.606C30.7292 195.656 30.5069 200.134 30.3011 204.522C24.3647 201.183 17.8662 198.962 11.1283 197.969C7.87653 197.483 4.25439 197.138 2.03992 194.709C-0.41333 192.025 -0.141663 187.917 0.269897 184.312C1.56238 173.116 2.85211 161.926 4.13904 150.741C4.55902 145.929 5.37683 141.16 6.58398 136.482C7.02856 134.927 7.5636 133.395 8.10699 131.864C8.85608 129.757 9.61346 127.649 10.1815 125.484C11 121.986 11.5722 118.435 11.8938 114.856C13.2192 103.595 14.8162 92.3576 16.2157 81.1041L16.2898 80.5114C18.389 63.4542 19.9861 46.3147 19.5251 29.134C19.4592 26.5903 19.3522 24.0464 19.1876 21.4945C18.9571 17.7982 18.6196 15.839 21.6819 13.5257C25.0654 10.9737 29.5189 9.18726 33.3882 7.51611C35.4709 6.6106 58.4059 -1.53113 58.9411 0.25531C60.017 4.06573 60.5817 8.00232 60.6205 11.9615C60.6367 16.8231 60.381 21.6794 59.8546 26.5101L59.8549 26.508Z" transform="translate(733.07086 377.23267)" id="Shape" fill="#FFAE63" fill-rule="evenodd" stroke="none" />
      <path d="M41.7786 41.6634C40.9142 46.4463 39.9016 51.2046 38.6997 55.9216C35.3574 69.0191 30.5087 81.8202 28.9445 95.2471C28.8951 95.634 28.854 96.0291 28.8128 96.4243C18.5883 81.8203 9.97742 66.1132 0 51.3528C0.749084 49.2454 1.50647 47.1379 2.07446 44.9728C2.89307 41.4745 3.46527 37.9232 3.78687 34.3449C5.11218 23.0832 6.70923 11.8462 8.1087 0.592712L8.1828 0C8.76837 2.3891 9.60443 4.70972 10.6771 6.92328C17.3782 20.5394 33.2993 27.4216 41.087 40.4532C41.3257 40.8566 41.5563 41.26 41.7786 41.6634L41.7786 41.6634Z" transform="translate(741.1779 457.74414)" id="Shape" fill="#000000" fill-opacity="0.1" fill-rule="evenodd" stroke="none" />
      <path d="M0.038208 66.2642C0.375916 77.1851 2.12408 88.0073 3.86865 98.7932L7.46808 121.047C9.43805 133.226 11.4891 145.654 17.2528 156.563C21.5644 164.723 27.7763 171.687 33.396 179.008C47.2114 197.006 57.5901 217.395 70.6901 235.92C74.4979 241.305 79.9406 247.128 86.439 246.004C90.704 245.266 93.8018 241.715 97.1543 238.977C101.107 235.75 105.871 233.388 108.98 229.342C112.09 225.296 112.7 218.571 108.486 215.692C106.962 214.847 105.343 214.185 103.664 213.718C97.1324 211.234 92.9048 204.856 90.215 198.407C87.5251 191.957 85.8953 185.023 82.3109 179.024C74.5239 165.992 58.6005 159.111 51.8978 145.49C48.1437 137.861 47.7859 129.068 47.499 120.57L46.7675 98.9079C46.6875 96.539 46.6249 94.0753 47.5879 91.9096C50.1517 86.1433 57.8928 85.6062 64.1609 84.8752C71.275 84.0414 78.1666 81.8671 84.4709 78.4672C88.0812 76.5178 91.6083 74.0325 93.5396 70.4125C95.3017 67.1099 95.5449 63.2362 95.7515 59.4986L97.9218 20.2408C98.1085 16.8633 98.2787 13.371 97.0884 10.2048C94.0993 2.2543 84.0598 -0.343689 75.5745 0.0356445C59.7845 0.741516 45.2079 7.53387 30.3199 12.1208C26.6323 13.284 22.8885 14.2605 19.1025 15.0466C15.7612 15.7172 11.7173 15.439 8.53058 16.5133C2.86328 18.424 3.0072 30.8177 2.20355 35.9588C0.543823 45.9716 -0.181091 56.1171 0.038208 66.2643L0.038208 66.2642Z" transform="translate(699.9534 313.41376)" id="Shape" fill="#FFAE63" fill-rule="evenodd" stroke="none" />
      <path d="M3.14484 25.382C4.53723 26.7861 4.99231 28.8433 5.35504 30.7872C7.36621 41.5702 8.41235 52.5109 8.48096 63.4796C8.38788 64.503 8.59222 65.5315 9.0694 66.4417C9.46149 66.9844 9.9928 67.4115 10.6073 67.6776C14.6315 69.5957 19.3025 66.9227 22.6558 63.9852C28.8721 58.5398 34.132 51.2308 34.4851 42.9742C34.4204 40.8477 34.4949 38.7191 34.7081 36.6021C35.2542 33.4937 37.0693 30.7854 38.6686 28.0648C41.3904 23.4334 43.5858 18.5122 45.2137 13.3929C45.8251 11.4695 46.2318 9.04785 44.7247 7.70557C44.1904 7.28687 43.5829 6.97107 42.9332 6.77423L24.7546 0.0244751C23.1793 -0.560425 19.2595 9.50879 18.6373 10.6096C17.1155 13.3022 15.6022 14.8309 12.549 15.4524C9.43243 16.0869 5.72241 15.1765 2.81433 16.7314C-2.10492 19.3616 0.359497 22.5729 3.14484 25.382L3.14484 25.382Z" transform="translate(781.1036 535.68195)" id="Shape" fill="#535070" fill-rule="evenodd" stroke="none" />
      <path d="M20.6966 3.13483C20.3585 2.46265 19.8878 1.86591 19.3129 1.38055C18.4713 0.846863 17.5145 0.52179 16.5219 0.432434C13.0612 -0.155273 8.95917 -0.542175 6.57056 2.03015C4.33118 4.44177 4.71613 8.37054 2.84393 11.0771C2.25122 11.934 1.44818 12.6401 0.934326 13.5464C0.296509 14.9319 0.00878906 16.4528 0.0965576 17.9754C-6.10352e-05 22.1707 -0.0965576 26.373 0.193237 30.5594C0.436096 34.0674 1.0274 37.7434 3.22113 40.4916C6.74219 44.9027 13.0927 45.537 18.7294 45.8233L23.2947 46.0552C24.552 46.2079 25.8275 46.091 27.036 45.7122C28.5474 45.0135 29.7115 43.7326 30.2631 42.1615C32.6395 36.255 28.8761 29.8914 26.558 23.9619C23.8936 17.1464 24.372 9.57867 20.6966 3.13483L20.6966 3.13483Z" transform="translate(735.5019 564.1428)" id="Shape" fill="#535070" fill-rule="evenodd" stroke="none" />
      <path d="M15.6956 32.4054C15.6396 31.8066 15.7277 31.2032 15.9523 30.6453C16.6209 29.463 18.3669 29.7847 19.684 30.1168C24.9808 31.4522 30.5619 30.2434 36.0154 30.5554C41.469 30.8674 47.6121 33.5937 48.7086 38.945C52.6671 36.1387 56.0793 32.6327 58.7772 28.5997C60.2908 26.3347 61.6101 23.7403 61.404 21.0239C61.1068 17.1059 57.8196 14.1758 54.7758 11.6911L45.7026 4.28406C44.5118 3.18964 43.1364 2.31514 41.6401 1.70123C39.5449 0.985229 37.2601 1.32637 35.0459 1.32779C28.4412 1.33202 21.3993 -1.67378 15.5252 1.34572C13.0715 2.60703 11.2246 4.76848 9.44421 6.87604L1.34619 16.4619C0.736633 17.0728 0.291382 17.8279 0.0518189 18.657C-0.17865 19.8271 0.422241 20.9819 0.631958 22.1558C1.01447 24.2973 0.0921021 26.5828 0.801209 28.6394C1.97845 32.0535 6.12378 32.5368 8.65808 34.4941C9.6026 35.2236 11.0829 37.6958 12.2083 37.6656C14.2388 37.6112 15.6428 33.983 15.6956 32.4054L15.6956 32.4054Z" transform="translate(702.71936 100.153854)" id="Shape" fill="#3F3D56" fill-rule="evenodd" stroke="none" />
      <path d="M0 25.9315C0 11.6099 11.6099 0 25.9315 0C40.2531 0 51.8631 11.6099 51.8631 25.9315C51.8631 40.2531 40.2531 51.8631 25.9315 51.8631C11.6099 51.8631 0 40.2531 0 25.9315Z" transform="translate(706.2238 108.9525)" id="Circle" fill="#A0616A" fill-rule="evenodd" stroke="none" />
      <path d="M62.3971 27.9959C60.5916 22.8243 55.6431 19.4189 50.1677 19.58C49.4044 19.7221 48.6159 19.6224 47.912 19.2948C47.5139 18.9889 47.1959 18.5912 46.985 18.1357C45.4082 15.3002 44.1406 12.3035 43.204 9.19725C42.7903 7.82466 42.2245 6.20653 40.8361 5.84966C39.6647 5.69633 38.5042 6.20116 37.8177 7.16264C37.1582 8.11241 36.4376 9.01814 35.6602 9.8741C32.3989 12.7902 26.6176 10.1323 23.1559 12.8078C22.5905 13.2448 22.1239 13.8046 21.53 14.2021C20.9357 14.5599 20.295 14.8345 19.6261 15.0184C12.9416 17.2007 6.38861 19.7672 0 22.7051C2.30249 36.572 4.66193 50.6805 10.0592 63.6597C12.6277 69.8364 15.5385 75.8858 17.5952 82.2511C22.1524 96.3548 22.3545 111.445 22.4056 126.267C22.4406 136.411 22.3902 146.771 19.1083 156.37C18.2253 158.491 17.603 160.712 17.2549 162.983C17.0568 165.27 17.7225 167.792 19.5757 169.147C20.6502 169.85 21.8791 170.281 23.157 170.405C28.8438 171.239 34.5768 169.726 40.1763 168.429C55.1845 164.953 70.4911 162.964 85.7682 160.981L111.368 157.657C113.203 157.532 114.999 157.068 116.665 156.288C121.349 153.723 121.794 146.677 118.885 142.198C117.49 140.05 115.522 138.289 114.351 136.012C113.179 133.736 113.079 130.553 115.096 128.976C119.2 125.769 117.976 119.818 118.171 114.613C118.719 100.061 118.645 85.5028 117.949 70.9389C117.744 67.9241 117.696 64.9007 117.805 61.8809C118.26 56.7638 119.205 51.7023 120.628 46.7661L128.407 16.1381C126.375 12.9269 122.484 10.8896 118.798 9.96465C115.112 9.03966 111.274 8.76744 107.644 7.64265C100.207 5.33839 93.5871 -0.509354 85.8211 0.0356598C85.2336 0.0462189 84.6559 0.187302 84.1298 0.448654C82.3782 1.4409 82.6556 3.96501 82.5436 5.97493C82.296 10.4218 79.0253 14.1384 75.4133 16.7441C71.8014 19.3499 67.6763 21.25 64.3589 24.2217C63.1683 25.1187 62.4471 26.506 62.397 27.9959L62.3971 27.9959Z" transform="translate(675.8319 163.63985)" id="Shape" fill="#FFFFFF" fill-rule="evenodd" stroke="none" />
      <path d="M13.7838 9.59735C12.0642 10.7131 10.2369 11.6534 8.32941 12.4039C6.46155 12.9596 4.69672 13.816 3.10443 14.9396C2.37054 15.5743 1.75531 16.3344 1.28748 17.1844C-0.500488 20.3549 -0.421204 24.2471 1.49426 27.3421C3.40979 30.4371 6.85797 32.2443 10.493 32.0584C12.865 31.7927 15.1703 31.1053 17.3005 30.0287L35.5905 22.1032C38.6861 20.7617 42.03 19.1896 43.4932 16.1496C43.6637 15.8661 43.7269 15.5308 43.6713 15.2046C43.5239 14.8597 43.2572 14.5794 42.9201 14.4149C38.7947 11.7357 35.1868 8.33365 32.2702 4.3725C31.5198 3.35373 30.6016 0.94812 29.541 0.33728C25.6695 -1.89224 16.8825 7.5864 13.7838 9.59735L13.7838 9.59735Z" transform="translate(621.69574 211.08994)" id="Shape" fill="#A0616A" fill-rule="evenodd" stroke="none" />
      <path d="M43.6597 0L50.4028 7.70291C51.8504 9.35657 53.2996 11.0122 54.6191 12.7697C57.8596 17.2355 60.4591 22.1328 62.3422 27.319C63.8079 31.1653 65.0245 35.2621 64.5123 39.3462C64.1722 41.4398 63.6068 43.4906 62.8257 45.4627C61.5899 49.2556 60.0579 52.9455 58.2438 56.4984C56.718 59.1976 54.9946 61.7803 53.0876 64.2253C47.8668 71.1448 42.1542 77.6791 35.9941 83.7775C33.6887 86.0596 32.7219 89.7495 31.7184 92.8342C29.8674 98.5239 25.4631 102.955 21.204 107.158C19.8353 108.603 18.3226 109.905 16.6893 111.043C14.2426 112.619 11.3832 113.433 8.47327 113.383C7.19946 113.391 5.93817 113.13 4.77252 112.616C1.85791 111.232 0.376587 107.862 0.072937 104.65C-0.198425 101.735 0.2901 98.7993 1.49084 96.1292C5.36029 87.5576 15.2969 83.8432 22.3204 77.589C26.439 73.9217 29.5884 69.3151 32.6946 64.7585C34.8045 61.9135 36.5659 58.826 37.9413 55.562C39.5098 51.3767 38.8993 46.422 40.2697 42.1676C40.8489 40.3693 41.8787 38.7455 42.5016 36.9619C43.1245 35.1782 43.2813 33.0608 42.1917 31.5173C41.3698 30.5363 40.3221 29.7693 39.1387 29.2822C34.6519 27.0049 29.6267 24.0742 28.768 19.1163C28.4257 16.3669 29.144 13.5904 30.7769 11.352C32.4039 9.14349 34.3052 7.15091 36.435 5.42221C38.3973 3.68698 41.6973 1.7352 43.6597 0L43.6597 0Z" transform="translate(787.34735 214.18378)" id="Shape" fill="#A0616A" fill-rule="evenodd" stroke="none" />
      <path d="M31.0999 6.82973C29.9092 4.42454 28.4206 1.97066 26.018 0.774734C23.6641 -0.24736 20.9937 -0.25856 18.6312 0.743729C16.3015 1.74818 14.1203 3.06712 12.1486 4.66374L6.33636 8.94826C5.01855 9.8127 3.8526 10.8889 2.88562 12.1334C1.96844 13.6431 1.35779 15.3186 1.0885 17.0643C0.0754395 21.0456 -0.233826 25.1733 0.174683 29.261C1.09705 35.8153 5.04871 41.5375 9.39819 46.5267C12.116 49.6443 15.4716 52.7905 19.6055 52.9235C21.3899 52.9809 23.3744 52.2775 24.1166 50.6537C24.3736 50.01 24.5102 49.3244 24.5195 48.6313C24.966 41.3206 22.3508 34.1797 19.3011 27.5205C18.3287 25.7767 17.7542 23.8396 17.6185 21.8477C17.5966 21.5125 17.6838 21.1792 17.867 20.8976C18.13 20.6238 18.4816 20.4522 18.8592 20.4131C23.0333 19.5875 30.223 22.8301 33.1511 18.1948C35.0494 15.1898 32.4489 9.55473 31.0999 6.82973L31.0999 6.82973Z" transform="translate(600.05066 224.61009)" id="Shape" fill="#A0616A" fill-rule="evenodd" stroke="none" />
      <path d="M15.6956 32.4054C15.6397 31.8066 15.7277 31.2032 15.9523 30.6453C16.6209 29.463 18.3669 29.7848 19.684 30.1168C24.9808 31.4522 30.5619 30.2434 36.0154 30.5554C41.469 30.8674 47.6121 33.5937 48.7086 38.945C52.6671 36.1388 56.0793 32.6327 58.7772 28.5997C60.2908 26.3347 61.6101 23.7403 61.404 21.0239C61.1068 17.106 57.8196 14.1758 54.7758 11.691L45.7026 4.28403C44.5119 3.18961 43.1364 2.31512 41.6402 1.70123C39.5449 0.985222 37.2601 1.32636 35.0459 1.32778C28.4412 1.33202 21.3993 -1.67377 15.5252 1.34571C13.0715 2.60702 11.2246 4.76847 9.44421 6.87605L1.34619 16.462C0.736572 17.0729 0.291321 17.8279 0.0517578 18.6571C-0.17865 19.8271 0.422241 20.9819 0.631958 22.1559C1.01447 24.2974 0.0921021 26.5829 0.801209 28.6394C1.97845 32.0536 6.12378 32.5369 8.65808 34.4941C9.6026 35.2236 11.0829 37.6959 12.2083 37.6657C14.2388 37.6112 15.6428 33.983 15.6956 32.4054L15.6956 32.4054Z" transform="translate(701.35944 91.99414)" id="Shape" fill="#3F3D56" fill-rule="evenodd" stroke="none" />
      <path d="M13.8664 8.6226C12.8194 9.29784 11.9005 10.1533 11.1521 11.1494C10.2014 12.5868 10.0081 14.4016 9.19141 15.9192C7.44379 19.1668 3.35614 20.3222 0.806152 22.9864C0.401001 23.3528 0.119507 23.8357 0.000427246 24.3688C-0.0118408 25.0918 0.230652 25.7962 0.685425 26.3584L12.9821 45.69C17.0764 46.0505 21.0041 43.4854 25.1 43.8259C26.6294 43.953 28.1943 44.4813 29.6609 44.0293C30.7108 43.5638 31.6949 42.962 32.5876 42.2394C35.0313 40.6943 38.2859 40.5143 40.3361 38.4757C42.3036 36.5193 42.5546 33.4584 42.5312 30.6839C42.5641 28.2743 42.3188 25.8692 41.8002 23.5159C39.9898 16.0958 34.3148 10.4016 30.7571 3.82863C29.0251 0.628616 28.0826 -1.24467 24.4166 0.95253C20.7317 3.16112 17.3344 6.08653 13.8664 8.6226L13.8664 8.6226Z" transform="translate(648.1122 186.84145)" id="Shape" fill="#FFFFFF" fill-rule="evenodd" stroke="none" />
      <path d="M21.1286 6.52486C23.4395 8.02547 25.5229 9.8503 27.3148 11.9434C29.1881 14.3589 30.2491 17.315 32.0486 19.786C33.7928 22.181 36.1671 24.036 38.1456 26.2414C41.146 29.5861 43.1783 33.6667 45.1741 37.6924C40.2995 44.0499 34.9844 50.057 29.2679 55.6696C28.6316 56.4193 27.7932 56.9704 26.8527 57.2572C25.553 57.3952 24.2709 56.8725 23.4382 55.8652C22.5526 54.9361 21.9249 53.7906 21.0783 52.8259C19.0801 50.7645 16.4171 49.4765 13.5605 49.1899C10.7293 48.9162 7.88031 48.877 5.04266 49.0726C4.41962 49.142 3.78955 49.0361 3.22345 48.7669C2.80255 48.4764 2.4613 48.0849 2.2309 47.6283C-1.09839 41.9631 -0.0275269 34.8503 1.14709 28.385L3.84235 13.5497C4.23285 10.7164 4.98676 7.94511 6.08551 5.30446C7.10626 3.12273 9.38916 -0.57695 12.196 0.0761871C15.0256 0.734573 18.748 4.81261 21.1286 6.52486L21.1286 6.52486Z" transform="translate(790.1914 179.16325)" id="Shape" fill="#FFFFFF" fill-rule="evenodd" stroke="none" />
      <path d="M0 41.0746C0 18.3897 18.3563 0 41 0C63.6437 0 82 18.3897 82 41.0746C82 63.7594 63.6437 82.1491 41 82.1491C18.3563 82.1491 0 63.7594 0 41.0746Z" transform="translate(276.9788 200.95085)" id="Ellipse" fill="#FFFFFF" fill-rule="evenodd" stroke="none" />
      <path d="M49 0C21.9381 0 3.05176e-05 21.938 0 48.9999C-3.05176e-05 76.0619 21.9379 97.9999 48.9998 98C76.0618 98.0001 97.9999 76.0622 98 49.0002C97.9203 21.9697 76.0278 0.0783691 48.9986 0L49 0ZM38.9409 75.1255L13.8284 50.013L20.8721 42.9692L38.9644 61.0616L77.1515 22.8745L84.1952 29.9183L38.9409 75.1255L38.9409 75.1255Z" transform="translate(268.9788 193.95084)" id="Shape" fill="#57B894" fill-rule="evenodd" stroke="none" />
    </g>
  </g>
</svg>