<?xml version="1.0" encoding="utf-8"?>
<svg width="58px" height="58px" viewBox="0 0 58 58" version="1.1" xmlns:xlink="http://www.w3.org/1999/xlink" xmlns="http://www.w3.org/2000/svg">
  <path d="M45.9167 0L12.0833 0C5.41092 0 0 5.41092 0 12.0833L0 45.9167C0 52.5891 5.41092 58 12.0833 58L45.9167 58C52.5915 58 58 52.5891 58 45.9167L58 12.0833C58 5.41092 52.5915 0 45.9167 0L45.9167 0L45.9167 0ZM19.3333 45.9167L12.0833 45.9167L12.0833 19.3333L19.3333 19.3333L19.3333 45.9167L19.3333 45.9167L19.3333 45.9167ZM15.7083 16.269C13.3738 16.269 11.4792 14.3598 11.4792 12.006C11.4792 9.65217 13.3738 7.743 15.7083 7.743C18.0428 7.743 19.9375 9.65217 19.9375 12.006C19.9375 14.3598 18.0453 16.269 15.7083 16.269L15.7083 16.269L15.7083 16.269ZM48.3333 45.9167L41.0833 45.9167L41.0833 32.3737C41.0833 24.2343 31.4167 24.8506 31.4167 32.3737L31.4167 45.9167L24.1667 45.9167L24.1667 19.3333L31.4167 19.3333L31.4167 23.5988C34.7903 17.3493 48.3333 16.8877 48.3333 29.5824L48.3333 45.9167L48.3333 45.9167L48.3333 45.9167Z" id="Shape" fill="#63AEFF" fill-rule="evenodd" stroke="none" />
</svg>